# xmcd
#
# Track frame offsets:
#	150
#	17825
#	39330
#	55882
#
# Disc length: 988 seconds
#
# Revision: 2
# Processed by: cddbd v1.4PL0 Copyright (c) Steve Scherf et al.
# Submitted via: audiograbber 1.82.00
#
DISCID=2903da04
DTITLE=Desree - Feel so high
DYEAR=1994
DGENRE=R&B
TTITLE0=Feel so high
TTITLE1=Mind Adventures
TTITLE2=Innocent and Naive
TTITLE3=You gotta be (love will save the day MIX)
EXTD=
EXTT0=
EXTT1=
EXTT2=
EXTT3=
PLAYORDER=
